<?xml version="1.0" encoding="iso-8859-1"?>
<!-- Generator: Adobe Illustrator 21.0.0, SVG Export Plug-In . SVG Version: 6.00 Build 0)  -->
<svg version="1.1" id="Capa_1" xmlns="http://www.w3.org/2000/svg" xmlns:xlink="http://www.w3.org/1999/xlink" x="0px" y="0px"
	 viewBox="0 0 512 512" style="enable-background:new 0 0 512 512;" xml:space="preserve">
<g>
	<g transform="translate(1 1)">
		<path style="fill:#A4C2F7;" d="M425.672,24.6v460.8c-0.028,9.414-7.653,17.039-17.067,17.067h-358.4
			c-9.414-0.028-17.039-7.653-17.067-17.067V75.8l68.267-68.267h307.2C418.019,7.561,425.644,15.186,425.672,24.6z"/>
		<path style="fill:#E3E7F2;" d="M400.072,24.6v460.8c-0.028,9.414-7.653,17.039-17.067,17.067h-332.8
			c-9.414-0.028-17.039-7.653-17.067-17.067V75.8l68.267-68.267h281.6C392.419,7.561,400.044,15.186,400.072,24.6z"/>
		<path style="fill:#A4C2F7;" d="M101.405,7.533v51.2c-0.028,9.414-7.653,17.039-17.067,17.067h-51.2L101.405,7.533z"/>
		<polygon style="fill:#D4E1F4;" points="447.816,140.525 403.613,184.728 355.4,136.515 355.4,136.429 399.517,92.312 		"/>
		<path style="fill:#E3E7F2;" d="M476.872,97.304c0.025,9.059-3.569,17.753-9.984,24.149l-24.149,24.149L394.44,97.389
			l24.149-24.149c9.752-9.762,24.422-12.693,37.176-7.427S476.848,83.506,476.872,97.304z"/>
		<g>
			<path style="fill:#A4C2F7;" d="M201.416,387.011l-74.496,37.632c-3.288,1.771-7.348,1.184-9.998-1.448
				c-2.651-2.631-3.269-6.686-1.522-9.987l37.717-74.496L201.416,387.011z"/>
			<polygon style="fill:#A4C2F7;" points="412.53,175.811 201.416,387.011 188.616,374.211 188.53,374.211 183.325,368.92 
				183.24,368.92 171.208,356.803 153.117,338.712 351.517,140.397 364.317,127.597 382.408,145.688 394.44,157.72 			"/>
		</g>
		<polygon style="fill:#E3E7F2;" points="386.93,175.811 188.616,374.211 188.53,374.211 183.325,368.92 183.24,368.92 
			171.208,356.803 153.117,338.712 351.517,140.397 356.808,145.688 368.84,157.72 		"/>
		<path style="fill:#FFFFFF;" d="M58.738,485.4V75.8l68.267-68.267h-25.6L33.138,75.8v409.6c0.028,9.414,7.653,17.039,17.067,17.067
			h25.6C66.391,502.439,58.767,494.814,58.738,485.4z"/>
	</g>
	<g>
		<polygon style="fill:#FFFFFF;" points="42.672,105.301 42.672,216.235 42.672,486.4 25.605,486.4 25.605,216.235 25.605,105.301 
					"/>
		<g>
			<path style="fill:#428DFF;" d="M34.138,182.101c3.467,0.02,6.601-2.059,7.931-5.261c1.329-3.202,0.59-6.89-1.872-9.331
				l-1.28-1.024c-0.476-0.323-0.992-0.582-1.536-0.768c-0.484-0.247-1.001-0.419-1.536-0.512c-0.564-0.095-1.135-0.152-1.707-0.171
				c-2.259,0.033-4.422,0.917-6.059,2.475c-0.771,0.816-1.38,1.772-1.792,2.816c-1.287,3.183-0.586,6.825,1.792,9.301
				c0.816,0.771,1.772,1.38,2.816,1.792C31.922,181.856,33.023,182.088,34.138,182.101z"/>
			<path style="fill:#428DFF;" d="M435.205,56.602V25.6c0-14.138-11.462-25.6-25.6-25.6h-307.2c-1.119,0.001-2.227,0.224-3.26,0.657
				c-1.04,0.428-1.986,1.057-2.782,1.852L28.097,70.775c-1.586,1.605-2.48,3.768-2.492,6.025v28.501v34.133
				c0,4.713,3.821,8.533,8.533,8.533s8.533-3.82,8.533-8.533v-34.133V85.333h42.667c14.138,0,25.6-11.462,25.6-25.6V17.067h298.667
				c4.713,0,8.533,3.821,8.533,8.533v38.852c-1.609,1.136-3.137,2.382-4.574,3.729L148.075,333.653
				c-0.28,0.347-0.529,0.718-0.742,1.109c-0.31,0.334-0.596,0.69-0.853,1.067l-37.658,74.462c-2.721,5.259-2.522,11.553,0.527,16.63
				c3.049,5.077,8.511,8.21,14.432,8.279c2.772-0.012,5.501-0.685,7.962-1.963l74.487-37.666c0.372-0.252,0.72-0.538,1.041-0.853
				c0.401-0.222,0.783-0.476,1.143-0.759L418.138,184.32V486.4c0,4.713-3.821,8.533-8.533,8.533h-358.4
				c-4.713,0-8.533-3.82-8.533-8.533V207.701c0-4.713-3.821-8.533-8.533-8.533s-8.533,3.821-8.533,8.533V486.4
				c0,14.138,11.462,25.6,25.6,25.6h358.4c14.138,0,25.6-11.461,25.6-25.6V167.253l14.558-14.549l24.132-24.124
				c13.317-13.315,16.329-33.786,7.413-50.373C472.393,61.621,453.657,52.84,435.205,56.602z M85.338,68.267H54.738l39.134-39.134
				v30.601C93.872,64.446,90.051,68.267,85.338,68.267z M420.698,157.585l-0.119,0.119l-7.023,7.023l-18.091-18.099l-18.108-18.099
				l18.108-18.108l36.207,36.207L420.698,157.585z M365.283,140.587l12.075,12.075l-66.372,66.372
				c-2.218,2.143-3.108,5.315-2.327,8.299c0.781,2.984,3.111,5.313,6.094,6.094s6.156-0.109,8.299-2.327l66.381-66.406
				l12.066,12.066l-199.117,199.16l-12.083-12.075l66.389-66.372c3.234-3.348,3.188-8.671-0.104-11.962
				c-3.292-3.292-8.614-3.338-11.962-0.104l-66.372,66.372l-12.075-12.066L365.283,140.587z M124.054,418.048l32.35-64
				l15.795,15.795l15.821,15.863L124.054,418.048z M461.846,116.446l-18.108,18.108l-36.207-36.207l18.099-18.133
				c9.996-10.001,26.206-10.004,36.207-0.009s10.004,26.206,0.009,36.207V116.446z"/>
			<path style="fill:#428DFF;" d="M110.938,128h196.267c4.713,0,8.533-3.821,8.533-8.533c0-4.713-3.82-8.533-8.533-8.533H110.938
				c-4.713,0-8.533,3.821-8.533,8.533C102.405,124.179,106.226,128,110.938,128z"/>
			<path style="fill:#428DFF;" d="M110.938,170.667h162.133c4.713,0,8.533-3.821,8.533-8.533c0-4.713-3.82-8.533-8.533-8.533
				H110.938c-4.713,0-8.533,3.821-8.533,8.533C102.405,166.846,106.226,170.667,110.938,170.667z"/>
			<path style="fill:#428DFF;" d="M110.938,213.333h128c4.713,0,8.533-3.821,8.533-8.533c0-4.713-3.821-8.533-8.533-8.533h-128
				c-4.713,0-8.533,3.821-8.533,8.533C102.405,209.513,106.226,213.333,110.938,213.333z"/>
			<path style="fill:#428DFF;" d="M110.938,256h85.333c4.713,0,8.533-3.82,8.533-8.533c0-4.713-3.821-8.533-8.533-8.533h-85.333
				c-4.713,0-8.533,3.821-8.533,8.533C102.405,252.18,106.226,256,110.938,256z"/>
			<path style="fill:#428DFF;" d="M110.938,298.667h42.667c4.713,0,8.533-3.821,8.533-8.533c0-4.713-3.82-8.533-8.533-8.533h-42.667
				c-4.713,0-8.533,3.821-8.533,8.533C102.405,294.846,106.226,298.667,110.938,298.667z"/>
			<path style="fill:#428DFF;" d="M204.805,418.133c0,4.713,3.821,8.533,8.533,8.533h145.067c4.713,0,8.533-3.82,8.533-8.533
				s-3.82-8.533-8.533-8.533H213.338C208.626,409.6,204.805,413.421,204.805,418.133z"/>
			<path style="fill:#428DFF;" d="M136.538,460.8c0,4.713,3.821,8.533,8.533,8.533h213.333c4.713,0,8.533-3.82,8.533-8.533
				s-3.82-8.533-8.533-8.533H145.072C140.359,452.267,136.538,456.087,136.538,460.8z"/>
			<path style="fill:#428DFF;" d="M256.005,375.467c0,4.713,3.821,8.533,8.533,8.533h93.867c4.713,0,8.533-3.821,8.533-8.533
				c0-4.713-3.82-8.533-8.533-8.533h-93.867C259.826,366.933,256.005,370.754,256.005,375.467z"/>
			<path style="fill:#428DFF;" d="M298.672,332.8c0,4.713,3.82,8.533,8.533,8.533h51.2c4.713,0,8.533-3.82,8.533-8.533
				s-3.82-8.533-8.533-8.533h-51.2C302.492,324.267,298.672,328.087,298.672,332.8z"/>
			<path style="fill:#428DFF;" d="M358.405,298.667c4.713,0,8.533-3.821,8.533-8.533c0-4.713-3.82-8.533-8.533-8.533h-8.533
				c-4.713,0-8.533,3.821-8.533,8.533c0,4.713,3.821,8.533,8.533,8.533H358.405z"/>
		</g>
	</g>
</g>
<g>
</g>
<g>
</g>
<g>
</g>
<g>
</g>
<g>
</g>
<g>
</g>
<g>
</g>
<g>
</g>
<g>
</g>
<g>
</g>
<g>
</g>
<g>
</g>
<g>
</g>
<g>
</g>
<g>
</g>
</svg>
