<?xml version="1.0" encoding="iso-8859-1"?>
<!-- Generator: Adobe Illustrator 19.0.0, SVG Export Plug-In . SVG Version: 6.00 Build 0)  -->
<svg version="1.1" id="Capa_1" xmlns="http://www.w3.org/2000/svg" xmlns:xlink="http://www.w3.org/1999/xlink" x="0px" y="0px"
	 viewBox="0 0 512.008 512.008" style="enable-background:new 0 0 512.008 512.008;" xml:space="preserve">
<g transform="translate(-1)">
	<g transform="translate(2 6)">
		<path style="fill:#E7EBF4;" d="M451.26,154.387c0.598,33.073-14.83,64.394-41.413,84.079
			c-11.361,8.204-18.154,21.313-18.306,35.325v35.946h-85.333v-35.905c-0.222-14.136-7.12-27.333-18.599-35.585
			c-38.454-28.689-51.84-80.225-32.209-124.001s67.019-68.059,114.018-58.426S450.432,106.418,451.26,154.387z"/>
		<path style="fill:#B2CDF8;" d="M451.275,154.345c0.588,33.081-14.824,64.412-41.387,84.137
			c-11.404,8.173-18.22,21.3-18.347,35.329v35.925h-25.6v-35.925c0.127-14.03,6.943-27.156,18.347-35.329
			c33.611-24.932,48.674-67.805,38.043-108.281c-10.631-40.476-44.817-70.414-86.342-75.611c5.711-0.772,11.48-1.029,17.237-0.768
			C407.141,56.595,449.847,100.379,451.275,154.345z"/>
		<g>
			<path style="fill:#E7EBF4;" d="M195.275,369.471h8.533c14.138,0,25.6,11.462,25.6,25.6v85.333c0,4.713-3.821,8.533-8.533,8.533
				h-204.8c-4.707-0.014-8.52-3.826-8.533-8.533v-85.333c-0.009-6.792,2.685-13.309,7.488-18.112s11.32-7.497,18.112-7.488H195.275z
				"/>
			<rect x="92.875" y="301.204" style="fill:#E7EBF4;" width="51.2" height="85.333"/>
			<path style="fill:#E7EBF4;" d="M195.275,224.404c18.851,0,34.133,15.282,34.133,34.133s-15.282,34.133-34.133,34.133h-153.6
				c-18.851,0-34.133-15.282-34.133-34.133s15.282-34.133,34.133-34.133H195.275z"/>
		</g>
		<path style="fill:#B2CDF8;" d="M58.742,198.804h119.467c9.426,0,17.067,7.641,17.067,17.067v85.333
			c0,9.426-7.641,17.067-17.067,17.067H58.742c-9.426,0-17.067-7.641-17.067-17.067v-85.333
			C41.675,206.445,49.316,198.804,58.742,198.804z"/>
		<g>
			<path style="fill:#E7EBF4;" d="M58.742,198.804h93.867c9.426,0,17.067,7.641,17.067,17.067v85.333
				c0,9.426-7.641,17.067-17.067,17.067H58.742c-9.426,0-17.067-7.641-17.067-17.067v-85.333
				C41.675,206.445,49.316,198.804,58.742,198.804z"/>
			<circle style="fill:#E7EBF4;" cx="118.475" cy="139.071" r="17.067"/>
		</g>
		<rect x="41.675" y="369.471" style="fill:#B2CDF8;" width="153.6" height="128"/>
		<g>
			<rect x="41.675" y="369.471" style="fill:#E7EBF4;" width="128" height="128"/>
			<path style="fill:#E7EBF4;" d="M408.608,343.871c-0.028,9.414-7.652,17.039-17.067,17.067h-8.533
				c0.002,9.053-3.593,17.737-9.995,24.139c-6.402,6.402-15.085,9.997-24.139,9.995c-4.397,0.034-8.754-0.838-12.8-2.56
				c-12.905-5.164-21.358-17.674-21.333-31.573h-8.533c-9.326-0.003-16.923-7.49-17.063-16.815
				c-0.14-9.325,7.23-17.036,16.551-17.319c-9.322-0.283-16.691-7.994-16.551-17.319c0.14-9.325,7.737-16.811,17.063-16.815h85.333
				c9.426,0,17.067,7.641,17.067,17.067s-7.641,17.067-17.067,17.067C400.956,326.831,408.581,334.456,408.608,343.871z"/>
		</g>
		<g>
			<path style="fill:#F0F7FF;" d="M383.008,343.871c-0.028,9.414-7.653,17.039-17.067,17.067h-8.533
				c0.024,13.9-8.428,26.41-21.333,31.573c-12.905-5.164-21.358-17.674-21.333-31.573h-8.533
				c-9.326-0.003-16.923-7.49-17.063-16.815c-0.14-9.325,7.23-17.036,16.551-17.319c-9.322-0.283-16.691-7.994-16.551-17.319
				c0.14-9.325,7.737-16.811,17.063-16.815h59.733c9.326,0.003,16.923,7.49,17.063,16.815c0.14,9.325-7.23,17.036-16.551,17.319
				C375.665,327.113,382.98,334.655,383.008,343.871z"/>
			<path style="fill:#F0F7FF;" d="M306.208,292.671h59.733c9.426,0,17.067,7.641,17.067,17.067l0,0
				c0,9.426-7.641,17.067-17.067,17.067h-59.733c-9.426,0-17.067-7.641-17.067-17.067l0,0
				C289.142,300.312,296.783,292.671,306.208,292.671z"/>
		</g>
		<rect x="75.808" y="403.604" style="fill:#E7EBF4;" width="85.333" height="93.867"/>
	</g>
	<g transform="translate(2 15)">
		<rect x="92.875" y="309.271" style="fill:#FFFFFF;" width="25.6" height="51.2"/>
		<path style="fill:#FFFFFF;" d="M118.475,147.137c4.919-0.012,9.589-2.16,12.8-5.886c-5.689-6.368-5.689-15.993,0-22.361
			c-5.17-5.916-13.715-7.53-20.687-3.907c-6.972,3.624-10.561,11.545-8.689,19.176C103.77,141.79,110.618,147.151,118.475,147.137z"
			/>
		<path style="fill:#FFFFFF;" d="M16.075,479.937h25.6c-4.707-0.014-8.52-3.826-8.533-8.533v-85.333
			c-0.009-6.792,2.685-13.309,7.488-18.112c4.803-4.803,11.32-7.497,18.112-7.488l-25.6,0c-6.792-0.009-13.309,2.685-18.112,7.488
			s-7.497,11.32-7.488,18.112v85.333C7.555,476.111,11.368,479.924,16.075,479.937z"/>
		<rect x="41.675" y="479.937" style="fill:#FFFFFF;" width="25.6" height="8.533"/>
		<path style="fill:#FFFFFF;" d="M41.675,283.671v8.533c0.028,9.414,7.653,17.039,17.067,17.067h25.6
			c-9.414-0.028-17.039-7.653-17.067-17.067v-8.533c-18.851,0-34.133-15.282-34.133-34.133s15.282-34.133,34.133-34.133v-8.533
			c0.027-9.414,7.652-17.039,17.067-17.067h-25.6c-9.414,0.027-17.039,7.652-17.067,17.067v8.533
			c-18.851,0-34.133,15.282-34.133,34.133S22.824,283.671,41.675,283.671z"/>
	</g>
	<g>
		<path style="fill:#FFFFFF;" d="M43.675,503.471H19.408l-2.128-0.029c-1.155-0.045-2.302-0.216-3.421-0.508
			c-6.937-1.767-12.034-7.676-12.763-14.797l-0.088-1.731v-79.701c0.048-2.817-0.114-4.619,0.137-8.467
			c1.159-14.208,11.052-26.188,24.785-30.014c3.249-0.897,6.608-1.33,9.978-1.286h7.767v17.067h-7.767
			c-1.815-0.05-3.626,0.17-5.376,0.654c-6.862,1.902-11.806,7.887-12.378,14.985c-0.137,1.32-0.056,4.702-0.079,7.061v77.101
			l0,2.599l0.003-0.002l-0.021,0.047l25.618-0.045V503.471z"/>
		<g>
			<path style="fill:#51A1FF;" d="M170.9,290.137c0.001-2.263-0.898-4.434-2.499-6.035c-1.6-1.6-3.771-2.499-6.035-2.499H78.583
				c-4.713,0-8.533,3.821-8.533,8.533c0,4.713,3.82,8.533,8.533,8.533h83.783c2.263,0.001,4.434-0.898,6.035-2.499
				C170.002,294.572,170.9,292.401,170.9,290.137z"/>
			<path style="fill:#51A1FF;" d="M43.675,366.937h-7.767c-3.37-0.043-6.729,0.39-9.978,1.286
				c-13.733,3.825-23.626,15.805-24.785,30.014c-0.251,3.848-0.088,5.65-0.137,8.467v16.301c0,4.713,3.821,8.533,8.533,8.533
				s8.533-3.821,8.533-8.533v-16.301c0.022-2.359-0.058-5.742,0.079-7.061c0.572-7.098,5.516-13.083,12.378-14.985
				c1.5-0.419,3.052-0.626,4.61-0.614v102.36H18.075c-0.048,0.119,0.033-0.055,0.006-0.004c-0.207,0.095-0.434,0.138-0.661,0.125
				c-0.271-0.003-0.54-0.038-0.803-0.103c-0.317-0.28-0.66-0.829-1.049-1.177c-1.595-1.604-3.764-2.506-6.027-2.506
				s-4.431,0.902-6.027,2.506c-0.42,0.388-0.772,0.845-1.039,1.351c-0.311,0.894-0.486,1.831-0.518,2.777
				c-0.058,2.211,0.554,4.389,1.758,6.245c3.144,4.884,8.55,7.84,14.358,7.853h19.441c3.025,5.262,8.623,8.513,14.692,8.533h136.533
				c9.421-0.011,17.056-7.645,17.067-17.067h17.067c9.421-0.011,17.056-7.645,17.067-17.067v-76.8
				c-0.02-18.843-15.29-34.113-34.133-34.133h-51.2v-34.133h25.6c14.132-0.015,25.585-11.468,25.6-25.6v-0.862
				c19.865-4.055,34.133-21.529,34.133-41.804s-14.268-37.749-34.133-41.804v-0.862c-0.015-14.132-11.468-25.585-25.6-25.6H137.54
				l13.656-10.242c1.81-1.357,3.007-3.377,3.327-5.617c0.32-2.24-0.262-4.515-1.619-6.325l-11.133-14.848
				c7.453-10.717,6.048-25.254-3.318-34.346c-9.366-9.092-23.938-10.064-34.429-2.297s-13.814,21.989-7.851,33.601
				c5.963,11.612,19.457,17.198,31.882,13.198l6.075,8.101l-25.031,18.775H60.742c-14.132,0.015-25.585,11.468-25.6,25.6v0.862
				c-19.865,4.055-34.133,21.529-34.133,41.804s14.268,37.749,34.133,41.804v0.862c0.015,14.132,11.468,25.585,25.6,25.6h25.6
				v34.133H43.675z M111.942,145.071c0-4.713,3.821-8.533,8.533-8.533c4.713,0,8.533,3.821,8.533,8.533
				c0,4.713-3.821,8.533-8.533,8.533C115.764,153.599,111.946,149.782,111.942,145.071z M86.342,494.937v-76.8h68.267v76.8H86.342z
				 M222.875,401.071v76.8h-17.067v-93.867C215.229,384.015,222.864,391.65,222.875,401.071z M188.753,486.347l-0.011,0.057
				l0.011,0.057l0.001,8.476h-17.079v-76.8c-0.011-9.421-7.645-17.056-17.067-17.067H86.342
				c-9.421,0.011-17.056,7.645-17.067,17.067v76.8H52.208V384.004h136.533L188.753,486.347z M222.875,264.537
				c-0.013,10.846-6.846,20.511-17.067,24.142v-48.283C216.029,244.026,222.862,253.692,222.875,264.537z M18.075,264.537
				c0.013-10.846,6.846-20.511,17.067-24.142v48.283C24.921,285.049,18.088,275.383,18.075,264.537z M52.208,307.204v-85.333
				c0.005-4.711,3.822-8.529,8.533-8.533h119.467c4.711,0.005,8.529,3.822,8.533,8.533v85.333c-0.005,4.711-3.822,8.529-8.533,8.533
				H60.742C56.031,315.733,52.213,311.915,52.208,307.204z M103.408,332.804h34.133v34.133h-34.133V332.804z"/>
			<path style="fill:#51A1FF;" d="M86.342,264.537c2.263,0.001,4.434-0.898,6.035-2.499s2.499-3.771,2.499-6.035v-17.067
				c0-4.713-3.821-8.533-8.533-8.533s-8.533,3.821-8.533,8.533v17.067c-0.001,2.263,0.898,4.434,2.499,6.035
				C81.907,263.639,84.078,264.538,86.342,264.537z"/>
			<path style="fill:#51A1FF;" d="M154.608,264.537c2.263,0.001,4.434-0.898,6.035-2.499c1.6-1.6,2.499-3.771,2.499-6.035v-17.067
				c0-4.713-3.821-8.533-8.533-8.533s-8.533,3.821-8.533,8.533v17.067c-0.001,2.263,0.898,4.434,2.499,6.035
				C150.174,263.639,152.345,264.538,154.608,264.537z"/>
			<path style="fill:#51A1FF;" d="M4.762,464.222c0.476,0.324,0.993,0.583,1.538,0.771c0.484,0.246,1.002,0.417,1.537,0.508
				c0.563,0.096,1.133,0.153,1.704,0.171c2.259-0.031,4.423-0.915,6.059-2.475c3.221-3.397,3.221-8.72,0-12.117
				c-0.815-0.77-1.77-1.379-2.813-1.792c-1.027-0.438-2.13-0.67-3.246-0.683c-2.259,0.034-4.422,0.918-6.059,2.475
				c-3.3,3.365-3.3,8.752,0,12.117L4.762,464.222z"/>
			<path style="fill:#51A1FF;" d="M239.942,162.137c-0.144,35.046,16.397,68.069,44.55,88.942
				c9.339,6.629,14.975,17.299,15.183,28.75v11.881c-8.071,2.793-14.194,9.46-16.29,17.739c-2.097,8.279,0.114,17.057,5.882,23.355
				c-6.819,7.474-8.571,18.274-4.466,27.521s13.291,15.19,23.408,15.146h0.862c4.055,19.865,21.529,34.133,41.804,34.133
				c20.275,0,37.749-14.268,41.804-34.133h0.862c10.117,0.044,19.303-5.899,23.408-15.146s2.353-20.046-4.466-27.521
				c5.768-6.298,7.979-15.076,5.882-23.355c-2.097-8.279-8.22-14.946-16.29-17.739v-11.923c0.123-11.318,5.646-21.896,14.863-28.467
				c37.761-28,53.783-76.755,39.993-121.697s-54.401-76.319-101.368-78.32c-30.21-1.286-59.635,9.819-81.463,30.743
				C252.272,102.971,239.934,131.9,239.942,162.137z M308.208,307.204h85.333c4.713,0,8.533,3.821,8.533,8.533
				c0,4.713-3.82,8.533-8.533,8.533h-85.333c-4.713,0-8.533-3.821-8.533-8.533C299.675,311.025,303.495,307.204,308.208,307.204z
				 M350.875,392.537c-10.813-0.033-20.435-6.868-24.027-17.067h48.055C371.31,385.67,361.688,392.504,350.875,392.537z
				 M393.542,358.404h-85.333c-4.713,0-8.533-3.821-8.533-8.533c0-4.713,3.82-8.533,8.533-8.533h85.333
				c4.713,0,8.533,3.821,8.533,8.533C402.075,354.584,398.254,358.404,393.542,358.404z M354.862,68.354
				c39.741,1.707,74.096,28.266,85.756,66.297c11.66,38.031-1.905,79.282-33.86,102.97c-13.571,9.773-21.654,25.443-21.75,42.167
				v10.35h-68.267v-10.308c-0.184-16.835-8.358-32.58-22.021-42.417c-33.014-24.635-46.116-67.911-32.309-106.721
				C276.218,91.882,313.708,66.604,354.862,68.354z"/>
			<path style="fill:#51A1FF;" d="M359.408,25.604V8.537c0-4.713-3.821-8.533-8.533-8.533c-4.713,0-8.533,3.821-8.533,8.533v17.067
				c0,4.713,3.821,8.533,8.533,8.533C355.588,34.137,359.408,30.317,359.408,25.604z"/>
			<path style="fill:#51A1FF;" d="M453.45,71.629l12.071-12.067c3.332-3.332,3.332-8.735,0-12.067
				c-3.332-3.332-8.734-3.332-12.067,0l-12.071,12.067c-2.156,2.156-2.997,5.297-2.208,8.242s3.089,5.244,6.033,6.033
				C448.153,74.626,451.294,73.785,453.45,71.629z"/>
			<path style="fill:#51A1FF;" d="M248.296,47.496c-3.332-3.332-8.735-3.332-12.067,0c-3.332,3.332-3.332,8.735,0,12.067
				L248.3,71.629c3.332,3.332,8.735,3.332,12.067,0c3.332-3.332,3.332-8.735,0-12.067L248.296,47.496z"/>
			<path style="fill:#51A1FF;" d="M504.475,153.604h-17.067c-4.713,0-8.533,3.821-8.533,8.533c0,4.713,3.82,8.533,8.533,8.533
				h17.067c4.713,0,8.533-3.821,8.533-8.533C513.008,157.425,509.188,153.604,504.475,153.604z"/>
			<path style="fill:#51A1FF;" d="M214.342,170.671c4.713,0,8.533-3.821,8.533-8.533c0-4.713-3.821-8.533-8.533-8.533h-17.067
				c-4.713,0-8.533,3.821-8.533,8.533c0,4.713,3.821,8.533,8.533,8.533H214.342z"/>
			<path style="fill:#51A1FF;" d="M287.492,135.387c4.077,2.362,9.297,0.975,11.663-3.1c10.704-18.445,30.395-29.823,51.721-29.884
				c4.713,0,8.533-3.821,8.533-8.533c0-4.713-3.821-8.533-8.533-8.533c-27.408,0.072-52.719,14.684-66.487,38.383
				C282.023,127.799,283.413,133.023,287.492,135.387z"/>
			<path style="fill:#51A1FF;" d="M274.671,171.729c0.533,4.265,4.156,7.469,8.454,7.475c0.358-0.002,0.715-0.024,1.071-0.067
				c4.675-0.585,7.992-4.849,7.408-9.525c-0.308-2.48-0.463-4.976-0.462-7.475c0-4.713-3.821-8.533-8.533-8.533
				s-8.533,3.821-8.533,8.533C274.075,165.344,274.274,168.547,274.671,171.729z"/>
		</g>
	</g>
</g>
<g>
</g>
<g>
</g>
<g>
</g>
<g>
</g>
<g>
</g>
<g>
</g>
<g>
</g>
<g>
</g>
<g>
</g>
<g>
</g>
<g>
</g>
<g>
</g>
<g>
</g>
<g>
</g>
<g>
</g>
</svg>
