<?xml version="1.0" encoding="iso-8859-1"?>
<!-- Generator: Adobe Illustrator 19.0.0, SVG Export Plug-In . SVG Version: 6.00 Build 0)  -->
<svg version="1.1" id="Capa_1" xmlns="http://www.w3.org/2000/svg" xmlns:xlink="http://www.w3.org/1999/xlink" x="0px" y="0px"
	 viewBox="0 0 512.121 512.121" style="enable-background:new 0 0 512.121 512.121;" xml:space="preserve">
<g transform="translate(-1 -1)">
	<g transform="translate(2 2)">
		<path style="fill:#B2CDF8;" d="M502.517,33.198v366.933H7.584l0-366.933c-0.009-6.792,2.685-13.309,7.488-18.112
			s11.32-7.497,18.112-7.488h443.733c6.792-0.009,13.309,2.685,18.112,7.488C499.832,19.889,502.526,26.405,502.517,33.198z"/>
		
			<linearGradient id="SVGID_1_" gradientUnits="userSpaceOnUse" x1="-49.7964" y1="651.7305" x2="-48.8941" y2="650.6517" gradientTransform="matrix(469.3334 0 0 -392.5334 23401.6289 255825.5781)">
			<stop  offset="0" style="stop-color:#D3DFF2"/>
			<stop  offset="0.1717" style="stop-color:#D3DFF2"/>
			<stop  offset="0.2" style="stop-color:#D3DFF2"/>
			<stop  offset="0.2002" style="stop-color:#DAE2F2"/>
			<stop  offset="0.2007" style="stop-color:#EBEAF2"/>
			<stop  offset="0.2014" style="stop-color:#F6EFF2"/>
			<stop  offset="0.2023" style="stop-color:#FDF2F2"/>
			<stop  offset="0.205" style="stop-color:#FFF3F2"/>
			<stop  offset="0.2522" style="stop-color:#FFF3F2"/>
			<stop  offset="0.26" style="stop-color:#FFF3F2"/>
			<stop  offset="0.26" style="stop-color:#D3DFF2"/>
			<stop  offset="0.3974" style="stop-color:#D3DFF2"/>
			<stop  offset="0.42" style="stop-color:#D3DFF2"/>
			<stop  offset="0.4202" style="stop-color:#DAE2F2"/>
			<stop  offset="0.4207" style="stop-color:#EBEAF2"/>
			<stop  offset="0.4214" style="stop-color:#F6EFF2"/>
			<stop  offset="0.4223" style="stop-color:#FDF2F2"/>
			<stop  offset="0.425" style="stop-color:#FFF3F2"/>
			<stop  offset="0.4894" style="stop-color:#FFF3F2"/>
			<stop  offset="0.5" style="stop-color:#FFF3F2"/>
			<stop  offset="0.5" style="stop-color:#F8F0F2"/>
			<stop  offset="0.5001" style="stop-color:#E7E8F2"/>
			<stop  offset="0.5003" style="stop-color:#DCE3F2"/>
			<stop  offset="0.5005" style="stop-color:#D5E0F2"/>
			<stop  offset="0.501" style="stop-color:#D3DFF2"/>
			<stop  offset="0.7062" style="stop-color:#D3DFF2"/>
			<stop  offset="0.74" style="stop-color:#D3DFF2"/>
			<stop  offset="0.741" style="stop-color:#FFF3F2"/>
			<stop  offset="0.8346" style="stop-color:#FFF3F2"/>
			<stop  offset="0.85" style="stop-color:#FFF3F2"/>
			<stop  offset="0.851" style="stop-color:#D3DFF2"/>
		</linearGradient>
		<path style="fill:url(#SVGID_1_);" d="M476.917,33.198v366.933H7.584l0-366.933c-0.009-6.792,2.685-13.309,7.488-18.112
			s11.32-7.497,18.112-7.488h418.133c6.792-0.009,13.309,2.685,18.112,7.488C474.232,19.889,476.926,26.405,476.917,33.198z"/>
		<rect x="212.384" y="417.198" style="fill:#B2CDF8;" width="85.333" height="68.267"/>
		<g>
			<rect x="212.384" y="417.198" style="fill:#E7EBF4;" width="59.733" height="68.267"/>
			<path style="fill:#E7EBF4;" d="M502.517,383.064v25.6c0.009,6.792-2.685,13.309-7.488,18.112
				c-4.803,4.803-11.32,7.497-18.112,7.488H33.184c-6.792,0.009-13.309-2.685-18.112-7.488c-4.803-4.803-7.497-11.32-7.488-18.112
				l0-25.6H502.517z"/>
		</g>
		<path style="fill:#F0F7FF;" d="M476.917,383.064v25.6c0.009,6.792-2.685,13.309-7.488,18.112
			c-4.803,4.803-11.32,7.497-18.112,7.488H33.184c-6.792,0.009-13.309-2.685-18.112-7.488c-4.803-4.803-7.497-11.32-7.488-18.112
			l0-25.6H476.917z"/>
		<path style="fill:#E7EBF4;" d="M348.917,502.531H161.184c-0.012-9.056,3.58-17.746,9.984-24.149
			c6.404-6.404,15.093-9.996,24.15-9.984h119.467c9.053-0.003,17.737,3.593,24.139,9.995S348.92,493.477,348.917,502.531z"/>
		<g>
			<path style="fill:#F0F7FF;" d="M323.317,502.531H161.184c-0.012-9.056,3.58-17.746,9.984-24.15
				c6.404-6.404,15.093-9.996,24.15-9.984h93.867c2.882-0.026,5.754,0.347,8.533,1.109
				C312.793,473.373,323.331,486.967,323.317,502.531z"/>
			<polygon style="fill:#F0F7FF;" points="246.517,297.714 186.016,356.679 161.952,332.615 212.384,280.647 			"/>
			<path style="fill:#F0F7FF;" d="M186.016,368.792l-16.299,16.299l-36.181-36.181l16.299-16.299c3.354-3.327,8.763-3.327,12.117,0
				l24.063,24.064C189.344,360.028,189.344,365.439,186.016,368.792z"/>
		</g>
		<g>
			<path style="fill:#E7EBF4;" d="M169.717,385.091L54.858,500.035c-3.354,3.328-8.764,3.328-12.117,0l-24.149-24.149
				c-3.327-3.354-3.327-8.764,0-12.117L133.536,348.91L169.717,385.091z"/>
			<circle style="fill:#E7EBF4;" cx="272.117" cy="229.447" r="119.467"/>
		</g>
		<path style="fill:#B2CDF8;" d="M389.024,204.888l-70.741,70.741c-6.052,6.132-15.739,6.756-22.528,1.451l-65.877-51.2
			l-61.014,51.627c-1.426,1.241-3.077,2.197-4.864,2.816c-5.197-10.975-8.651-22.692-10.24-34.731l64.683-54.784
			c6.168-5.202,15.135-5.38,21.504-0.427l64.853,50.517l66.731-66.645c1.378-1.39,2.997-2.518,4.779-3.328
			C382.275,181.522,386.564,192.979,389.024,204.888z"/>
		<g>
			<path style="fill:#E7EBF4;" d="M161.184,101.464c0.04,15.85-6.259,31.059-17.494,42.24l-42.24-42.24H161.184z"/>
			<path style="fill:#E7EBF4;" d="M143.69,143.704c-19.117,19.117-48.692,23.011-72.106,9.493s-34.83-41.077-27.832-67.192
				s30.662-44.274,57.698-44.275v59.733L143.69,143.704z"/>
			<path style="fill:#E7EBF4;" d="M161.184,101.464H101.45V41.731c15.846-0.012,31.046,6.278,42.251,17.483
				C154.906,70.418,161.195,85.618,161.184,101.464z"/>
		</g>
		<path style="fill:#FFFFFF;" d="M33.184,434.264h14.933l-29.525,29.504c-3.327,3.354-3.327,8.763,0,12.117l24.149,24.149
			c3.354,3.328,8.764,3.328,12.117,0l6.739-6.744l-17.406-17.405c-3.327-3.354-3.327-8.764,0-12.117l29.525-29.504H58.784
			c-6.792,0.009-13.309-2.685-18.112-7.488c-4.803-4.803-7.497-11.32-7.488-18.112V33.198c-0.009-6.792,2.685-13.309,7.488-18.112
			s11.32-7.497,18.112-7.488h-25.6c-6.792-0.009-13.309,2.685-18.112,7.488s-7.497,11.32-7.488,18.112v375.467
			c-0.009,6.792,2.685,13.309,7.488,18.112C19.875,431.579,26.391,434.273,33.184,434.264z"/>
	</g>
	<g>
		<path style="fill:#FFFFFF;" d="M1.05,410.664V43.674c-0.132-4.469-0.004-8.943,0.384-13.397
			C3.018,19.343,9.802,9.855,19.635,4.819c4.845-2.458,10.199-3.745,15.631-3.755H474.22c2.236,0.037,3.608-0.082,6.554,0.083
			c13.961,0.694,26.064,9.886,30.479,23.149c1.48,4.774,2.089,9.775,1.798,14.764v365.795l-0.015,6.191
			c-0.036,2.707-0.392,5.401-1.059,8.025c-2.712,10.712-10.452,19.443-20.762,23.42c-2.53,0.986-5.172,1.656-7.866,1.995
			c-1.339,0.175-2.687,0.273-4.037,0.296l-3.145,0.016H122.565v-17.067h353.602l2.95-0.015c0.681-0.015,1.362-0.067,2.038-0.155
			c1.343-0.164,2.66-0.498,3.92-0.994c5.144-1.981,9.006-6.337,10.357-11.682c0.336-1.317,0.517-2.669,0.539-4.029l0.014-6.002
			V39.06c0.292-3.138-0.017-6.303-0.908-9.326c-2.187-6.633-8.242-11.227-15.219-11.546c-1.112-0.116-3.809-0.032-5.637-0.058
			H35.266c-2.73,0.008-5.42,0.652-7.857,1.882c-4.909,2.51-8.296,7.246-9.083,12.703c-0.348,2.083-0.157,7.15-0.208,10.958v366.99
			H1.05z"/>
		<g>
			<path style="fill:#51A1FF;" d="M488.761,2.514c-2.599-0.77-5.28-1.228-7.987-1.367c-2.945-0.165-4.318-0.046-6.554-0.083H35.266
				C29.834,1.075,24.48,2.361,19.635,4.819C9.802,9.855,3.018,19.343,1.434,30.277c-0.388,4.454-0.516,8.928-0.384,13.397v264.59
				c0,4.713,3.821,8.533,8.533,8.533s8.533-3.82,8.533-8.533V43.674c0.052-3.808-0.14-8.875,0.208-10.958
				c0.788-5.457,4.174-10.193,9.083-12.703c2.437-1.23,5.128-1.875,7.858-1.882H474.22c1.827,0.026,4.524-0.058,5.637,0.058
				c6.977,0.319,13.032,4.913,15.219,11.546c0.892,3.023,1.2,6.188,0.908,9.326v337.471H194.332
				c4.097-4.305,5.649-10.438,4.091-16.173l15.737-15.74c43.892,23.239,97.264,18.999,136.937-10.878s58.49-80.001,48.279-128.605
				c-1.063-4.928-2.41-9.79-4.033-14.562l40.908-40.908v22.067c0,4.713,3.82,8.533,8.533,8.533s8.533-3.821,8.533-8.533v-42.667
				c-0.018-1.022-0.222-2.032-0.602-2.98c-0.113-0.277-0.241-0.547-0.384-0.809c-0.322-0.642-0.725-1.239-1.198-1.779
				c-0.184-0.227-0.38-0.444-0.587-0.65c-0.669-0.632-1.438-1.15-2.274-1.533c-0.071-0.032-0.124-0.088-0.196-0.118l-0.024-0.015
				c-0.939-0.369-1.936-0.567-2.945-0.585c-0.113-0.005-0.208-0.065-0.322-0.065h-42.667c-4.713,0-8.533,3.821-8.533,8.533
				c0,4.713,3.821,8.533,8.533,8.533h22.067l-35.956,35.956c-0.817-1.603-1.589-3.236-2.473-4.793l-0.009-0.015l-0.016-0.031
				l-0.01-0.011c-30.117-53.555-94.037-78.159-152.289-58.618s-94.405,77.713-86.134,138.596c0.408,3.173,0.945,6.334,1.609,9.484
				c0.371,1.759,0.875,3.5,1.325,5.248l-29.939,25.33L48.955,233.26c-2.407-1.871-5.63-2.316-8.454-1.167
				c-2.824,1.149-4.821,3.717-5.238,6.737c-0.417,3.02,0.809,6.033,3.216,7.905l76.8,59.733c3.186,2.475,7.669,2.383,10.75-0.221
				l30.064-25.434c0.717,1.712,1.383,3.436,2.178,5.13c4.378,9.281,9.87,17.995,16.355,25.948l-12.331,12.329
				c-5.875-1.61-12.163,0.047-16.482,4.343l-47.967,47.967H18.117c0-4.713-3.821-8.533-8.533-8.533s-8.533,3.82-8.533,8.533v34.133
				c0.047,16.842,12.387,31.126,29.044,33.619l-15.51,15.51c-6.654,6.67-6.654,17.467,0,24.138l24.133,24.133
				c6.669,6.656,17.468,6.656,24.138,0l63.267-63.267h79.729v17.067h-8.533c-23.553,0.028-42.639,19.114-42.667,42.667
				c0,4.713,3.821,8.533,8.533,8.533h187.733c4.713,0,8.533-3.82,8.533-8.533c-0.028-23.553-19.114-42.639-42.667-42.667h-8.533
				v-17.067h167.917l3.145-0.016c1.35-0.023,2.698-0.121,4.037-0.296c2.694-0.339,5.336-1.009,7.866-1.995
				c10.31-3.977,18.05-12.708,20.762-23.42c0.667-2.624,1.023-5.318,1.059-8.025l0.015-6.191V39.06
				c0.291-4.989-0.318-9.99-1.798-14.764C507.712,13.83,499.335,5.718,488.761,2.514z M182.017,364.768l-10.3,10.3l-24.135-24.135
				l10.302-10.302L182.017,364.768z M188.017,346.63l-11.999-11.999l10.245-10.243c4.132,3.907,8.518,7.537,13.128,10.866
				L188.017,346.63z M352.563,309.91c-24.586,24.661-59.337,36.325-93.823,31.491c-34.485-4.834-64.691-25.603-81.549-56.073
				l54.913-46.463l60.421,46.962c10.192,7.922,24.693,6.994,33.792-2.162l58.434-58.434
				C386.629,256.762,374.912,287.587,352.563,309.91L352.563,309.91z M167.316,261.405c-0.336-1.197-0.619-2.402-0.911-3.605
				c-0.416-1.708-0.807-3.418-1.134-5.134c-0.108-0.566-0.19-1.135-0.289-1.702l60.973-51.646c3.094-2.574,7.56-2.659,10.75-0.204
				l64.85,50.517c3.397,2.641,8.228,2.342,11.275-0.696l62.641-62.562c0.347,0.784,0.668,1.584,0.997,2.379
				c0.686,1.655,1.36,3.319,1.969,5.021c0.421,1.179,0.802,2.381,1.185,3.581c0.536,1.678,1.046,3.369,1.507,5.085
				c0.162,0.603,0.302,1.217,0.455,1.826l-67.375,67.375c-3.023,3.037-7.838,3.34-11.217,0.704l-65.879-51.2
				c-3.186-2.476-7.671-2.383-10.75,0.225l-56.531,47.834c-0.303-0.834-0.567-1.674-0.848-2.512
				C168.392,264.934,167.813,263.175,167.316,261.405z M195.671,153.018c23.476-23.894,56.563-35.785,89.879-32.302
				c33.316,3.483,63.227,21.961,81.254,50.194L306.1,231.535l-58.933-45.904c-9.573-7.365-22.979-7.09-32.242,0.662l-51.605,43.709
				C163.544,201.082,175.169,173.418,195.671,153.018z M35.184,427.731c-9.422-0.009-17.057-7.645-17.067-17.067v-17.067h62.662
				l-34.133,34.133H35.184z M50.784,495.998L26.65,471.864l80.73-80.73l0.091-0.091L135.515,363l24.135,24.135L50.784,495.998z
				 M340.921,495.998H173.18c3.627-10.221,13.292-17.054,24.137-17.067h119.467C327.629,478.943,337.294,485.777,340.921,495.998z
				 M291.184,461.864h-68.267v-17.067h68.267V461.864z M495.97,410.857c-0.021,1.359-0.202,2.711-0.539,4.029
				c-1.351,5.345-5.212,9.701-10.357,11.682c-1.259,0.496-2.576,0.83-3.92,0.994c-0.676,0.088-1.356,0.14-2.038,0.155l-2.95,0.014
				H143.188l34.133-34.133h318.663v11.257L495.97,410.857z"/>
			<path style="fill:#51A1FF;" d="M6.342,350.252c0.484,0.246,1.002,0.417,1.537,0.509c0.563,0.096,1.133,0.153,1.704,0.171
				c2.259-0.031,4.423-0.915,6.059-2.475c3.221-3.397,3.221-8.72,0-12.117c-0.815-0.771-1.77-1.379-2.813-1.792
				c-1.027-0.438-2.13-0.67-3.246-0.683c-2.259,0.034-4.422,0.918-6.059,2.475c-3.3,3.365-3.3,8.752,0,12.117l1.279,1.025
				C5.28,349.805,5.797,350.064,6.342,350.252z"/>
			<path style="fill:#51A1FF;" d="M103.45,171.731c18.021,0.009,35.31-7.133,48.072-19.857c0.062-0.058,0.143-0.075,0.203-0.135
				c0.06-0.06,0.077-0.142,0.135-0.203c22.896-23.099,26.304-59.148,8.141-86.127S107.157,28.021,77.14,40.543
				s-47.02,44.491-40.625,76.38S70.927,171.752,103.45,171.731z M145.137,133.084l-21.086-21.086h29.829
				C152.6,119.598,149.611,126.808,145.137,133.084z M153.88,94.931h-41.896V53.035C133.425,56.694,150.221,73.49,153.88,94.931z
				 M94.917,53.035v50.429c0.007,2.263,0.906,4.432,2.503,6.036l35.651,35.65c-17.155,12.213-40.041,12.665-57.665,1.139
				c-17.624-11.526-26.383-32.675-22.071-53.286S74.151,56.529,94.917,53.035z"/>
			<path style="fill:#51A1FF;" d="M393.584,325.331v25.6c0,4.713,3.821,8.533,8.533,8.533c4.713,0,8.533-3.821,8.533-8.533v-25.6
				c0-4.713-3.821-8.533-8.533-8.533C397.404,316.798,393.584,320.618,393.584,325.331z"/>
			<path style="fill:#51A1FF;" d="M427.717,291.198v59.733c0,4.713,3.821,8.533,8.533,8.533s8.533-3.821,8.533-8.533v-59.733
				c0-4.713-3.82-8.533-8.533-8.533S427.717,286.485,427.717,291.198z"/>
			<path style="fill:#51A1FF;" d="M478.917,350.931v-42.667c0-4.713-3.82-8.533-8.533-8.533s-8.533,3.82-8.533,8.533v42.667
				c0,4.713,3.82,8.533,8.533,8.533S478.917,355.644,478.917,350.931z"/>
		</g>
	</g>
</g>
<g>
</g>
<g>
</g>
<g>
</g>
<g>
</g>
<g>
</g>
<g>
</g>
<g>
</g>
<g>
</g>
<g>
</g>
<g>
</g>
<g>
</g>
<g>
</g>
<g>
</g>
<g>
</g>
<g>
</g>
</svg>
